<?xml version="1.0" encoding="utf-8"?>
<!-- Generator: Adobe Illustrator 27.5.0, SVG Export Plug-In . SVG Version: 6.00 Build 0)  -->
<svg version="1.1" id="Capa_1" xmlns="http://www.w3.org/2000/svg" xmlns:xlink="http://www.w3.org/1999/xlink" x="0px" y="0px"
	 viewBox="0 0 2122 2122" style="enable-background:new 0 0 2122 2122;" xml:space="preserve">
<g>
	<path style="fill:#2D4A82;" d="M1924.84,1721.198l-583.234-529.315c-7.087-6.431-18.045-5.901-24.477,1.186l-7.41,8.166
		l-40.516-36.771c10.703-14.884,8.778-35.748-5.122-48.363l-20.719-18.804c138.374-229.177,100.162-531.511-105.554-718.209
		c-233.761-212.15-595.243-194.631-807.394,39.13c-212.15,233.761-194.631,595.244,39.131,807.394
		c205.717,186.698,510.329,195.495,725.051,35.608l20.719,18.804c13.9,12.615,34.852,12.514,48.631,0.421l40.516,36.771
		l-7.411,8.166c-6.431,7.086-5.9,18.045,1.186,24.476l583.234,529.315c17.946,16.287,45.698,14.942,61.985-3.004l84.388-92.984
		C1944.131,1765.237,1942.786,1737.485,1924.84,1721.198z"/>
	<path style="fill:#CCCCCC;" d="M1269.203,1164.463c-0.807,1.123-1.668,2.219-2.62,3.267l-99.64,109.79
		c-0.951,1.049-1.96,2.011-2.999,2.923l40.516,36.771l105.258-115.98L1269.203,1164.463z"/>
	<path style="fill:#F6A654;" d="M1924.84,1721.198l-583.234-529.315c-7.087-6.431-18.045-5.901-24.477,1.186l-7.41,8.166
		l-105.258,115.98l-7.411,8.166c-6.431,7.086-5.9,18.045,1.186,24.476l583.234,529.315c17.946,16.287,45.698,14.942,61.985-3.004
		l84.388-92.984C1944.131,1765.237,1942.786,1737.485,1924.84,1721.198z"/>
	<path style="fill:#E1893E;" d="M1864.738,1802.49c-16.288,17.947-44.038,19.292-61.985,3.004l-571.069-518.275l-34.632,38.16
		c-6.432,7.087-5.902,18.045,1.185,24.477l583.235,529.316c17.945,16.287,45.697,14.942,61.985-3.004l84.388-92.984
		c13.94-15.361,14.922-37.885,3.674-54.275L1864.738,1802.49z"/>
	<circle style="fill:#1C2E41;" cx="753.676" cy="802.349" r="504.749"/>
	
		<ellipse transform="matrix(0.7071 -0.7071 0.7071 0.7071 -346.5999 767.9317)" style="fill:#9ED3EF;" cx="753.676" cy="802.349" rx="463.568" ry="463.568"/>
	<path style="fill:#59BEE9;" d="M1084.482,974.939c-172.059,189.585-465.23,203.793-654.815,31.734
		c-70.987-64.424-117.377-145.83-138.616-232.419c-8.138,135.391,42.829,273.124,151.086,371.371
		c189.585,172.058,482.757,157.85,654.816-31.736c107.634-118.598,142.366-277.731,106.88-422.394
		C1197.72,793.211,1158.293,893.609,1084.482,974.939z"/>
	
		<ellipse transform="matrix(0.9999 -0.0164 0.0164 0.9999 -9.1379 12.4061)" style="fill:#C2E0F2;" cx="753.627" cy="564.662" rx="291.642" ry="194.428"/>
	<path style="fill:#FCCC88;" d="M1880.553,1722.783l-2.879,3.173c-6.445,7.101-17.527,7.638-24.629,1.194l-520.085-472.005
		c-7.101-6.444-7.638-17.527-1.194-24.628l2.88-3.173c6.445-7.101,17.527-7.638,24.628-1.194l520.085,472.005
		C1886.46,1704.599,1886.998,1715.682,1880.553,1722.783z"/>
</g>
</svg>
